<svg width="851" height="159" viewBox="0 0 851 159" fill="none" xmlns="http://www.w3.org/2000/svg">
<path d="M0.058264 74V0.433172H12.7891V48.6355L7.93001 47.1777L32.8086 21.133H48.6493L29.1157 42.4158L49.038 74H34.4607L17.1623 46.5947L24.7425 45.0397L8.80465 62.1438L12.7891 54.3692V74H0.058264ZM75.4116 75.1662C69.9694 75.1662 65.2075 73.9352 61.1258 71.4733C57.0442 69.0113 53.8695 65.6747 51.602 61.4635C49.3344 57.2523 48.2006 52.5876 48.2006 47.4693C48.2006 42.1567 49.3344 37.4595 51.602 33.3779C53.9343 29.2315 57.0766 25.9597 61.0286 23.5625C65.0455 21.1653 69.5159 19.9668 74.4398 19.9668C78.5862 19.9668 82.2143 20.647 85.3241 22.0076C88.4988 23.3681 91.1875 25.247 93.3903 27.6442C95.5931 30.0413 97.2775 32.7948 98.4437 35.9046C99.6099 38.9497 100.193 42.2539 100.193 45.8172C100.193 46.7242 100.128 47.6637 99.9986 48.6355C99.9339 49.6073 99.7719 50.4495 99.5127 51.1622H58.6963V41.444H92.3213L86.296 46.0116C86.8791 43.0313 86.7171 40.375 85.8101 38.0426C84.9678 35.7103 83.5425 33.8638 81.534 32.5033C79.5904 31.1427 77.2256 30.4624 74.4398 30.4624C71.7834 30.4624 69.4187 31.1427 67.3455 32.5033C65.2722 33.799 63.6849 35.7427 62.5835 38.3342C61.5469 40.8609 61.1582 43.9383 61.4174 47.5665C61.1582 50.8059 61.5793 53.6889 62.6807 56.2157C63.8469 58.6776 65.5314 60.5889 67.7342 61.9494C70.0018 63.31 72.5933 63.9902 75.5088 63.9902C78.4242 63.9902 80.8862 63.3748 82.8946 62.1438C84.9678 60.9128 86.5875 59.2607 87.7537 57.1875L98.055 62.241C97.0184 64.7677 95.3987 67.0029 93.1959 68.9465C90.9931 70.8902 88.3692 72.4127 85.3241 73.5141C82.3439 74.6155 79.0397 75.1662 75.4116 75.1662ZM130.058 75.1662C124.615 75.1662 119.853 73.9352 115.772 71.4733C111.69 69.0113 108.515 65.6747 106.248 61.4635C103.98 57.2523 102.847 52.5876 102.847 47.4693C102.847 42.1567 103.98 37.4595 106.248 33.3779C108.58 29.2315 111.722 25.9597 115.675 23.5625C119.691 21.1653 124.162 19.9668 129.086 19.9668C133.232 19.9668 136.86 20.647 139.97 22.0076C143.145 23.3681 145.833 25.247 148.036 27.6442C150.239 30.0413 151.923 32.7948 153.09 35.9046C154.256 38.9497 154.839 42.2539 154.839 45.8172C154.839 46.7242 154.774 47.6637 154.645 48.6355C154.58 49.6073 154.418 50.4495 154.159 51.1622H113.342V41.444H146.967L140.942 46.0116C141.525 43.0313 141.363 40.375 140.456 38.0426C139.614 35.7103 138.188 33.8638 136.18 32.5033C134.236 31.1427 131.872 30.4624 129.086 30.4624C126.429 30.4624 124.065 31.1427 121.991 32.5033C119.918 33.799 118.331 35.7427 117.229 38.3342C116.193 40.8609 115.804 43.9383 116.063 47.5665C115.804 50.8059 116.225 53.6889 117.327 56.2157C118.493 58.6776 120.177 60.5889 122.38 61.9494C124.648 63.31 127.239 63.9902 130.155 63.9902C133.07 63.9902 135.532 63.3748 137.541 62.1438C139.614 60.9128 141.233 59.2607 142.4 57.1875L152.701 62.241C151.664 64.7677 150.045 67.0029 147.842 68.9465C145.639 70.8902 143.015 72.4127 139.97 73.5141C136.99 74.6155 133.686 75.1662 130.058 75.1662ZM159.63 93.4364V21.133H171.584V31.6286L170.418 29.0047C172.232 26.154 174.694 23.9512 177.804 22.3963C180.913 20.7766 184.509 19.9668 188.591 19.9668C193.579 19.9668 198.082 21.1977 202.099 23.6597C206.116 26.1216 209.29 29.4258 211.623 33.5723C214.02 37.7187 215.219 42.3834 215.219 47.5665C215.219 52.6847 214.052 57.3495 211.72 61.5607C209.388 65.7719 206.213 69.1085 202.196 71.5704C198.179 73.9676 193.612 75.1662 188.494 75.1662C184.671 75.1662 181.14 74.4211 177.901 72.931C174.726 71.3761 172.199 69.1733 170.32 66.3226L172.361 63.7959V93.4364H159.63ZM187.036 63.5043C189.951 63.5043 192.543 62.8241 194.81 61.4635C197.078 60.103 198.827 58.2241 200.058 55.827C201.354 53.4298 202.002 50.6763 202.002 47.5665C202.002 44.4566 201.354 41.7356 200.058 39.4032C198.827 37.006 197.078 35.1272 194.81 33.7666C192.543 32.3413 189.951 31.6286 187.036 31.6286C184.25 31.6286 181.723 32.3089 179.456 33.6694C177.253 35.03 175.504 36.9412 174.208 39.4032C172.977 41.8003 172.361 44.5214 172.361 47.5665C172.361 50.6763 172.977 53.4298 174.208 55.827C175.504 58.2241 177.253 60.103 179.456 61.4635C181.723 62.8241 184.25 63.5043 187.036 63.5043ZM220.066 74V21.133H232.796V74H220.066ZM220.066 15.2048V1.59935H232.796V15.2048H220.066ZM239.692 74V21.133H251.645V31.5314L250.673 29.685C251.904 26.5104 253.913 24.1132 256.699 22.4935C259.549 20.809 262.854 19.9668 266.611 19.9668C270.498 19.9668 273.932 20.809 276.913 22.4935C279.958 24.178 282.322 26.5428 284.007 29.5878C285.691 32.568 286.534 36.0342 286.534 39.9863V74H273.803V42.9989C273.803 40.6665 273.349 38.6581 272.442 36.9736C271.535 35.2891 270.272 33.9934 268.652 33.0863C267.097 32.1145 265.251 31.6286 263.113 31.6286C261.039 31.6286 259.193 32.1145 257.573 33.0863C255.954 33.9934 254.69 35.2891 253.783 36.9736C252.876 38.6581 252.423 40.6665 252.423 42.9989V74H239.692ZM318.096 95.3801C314.144 95.3801 310.483 94.7322 307.114 93.4364C303.745 92.1407 300.83 90.3266 298.368 87.9942C295.971 85.7266 294.221 83.0379 293.12 79.9281L304.976 75.4577C305.754 77.9197 307.276 79.8957 309.544 81.3858C311.876 82.9408 314.727 83.7182 318.096 83.7182C320.687 83.7182 322.955 83.2323 324.898 82.2605C326.907 81.2887 328.462 79.8633 329.563 77.9845C330.665 76.1704 331.215 73.9676 331.215 71.3761V59.3255L333.645 62.241C331.831 65.4156 329.401 67.8127 326.356 69.4324C323.311 71.0521 319.845 71.862 315.958 71.862C311.034 71.862 306.628 70.7282 302.741 68.4606C298.854 66.193 295.809 63.0832 293.606 59.1311C291.403 55.1791 290.302 50.7411 290.302 45.8172C290.302 40.8285 291.403 36.3905 293.606 32.5033C295.809 28.616 298.821 25.5709 302.644 23.3681C306.466 21.1006 310.807 19.9668 315.666 19.9668C319.618 19.9668 323.084 20.809 326.065 22.4935C329.11 24.1132 331.636 26.478 333.645 29.5878L331.896 32.7948V21.133H343.946V71.3761C343.946 75.976 342.812 80.0901 340.545 83.7182C338.342 87.3463 335.297 90.197 331.41 92.2702C327.587 94.3434 323.149 95.3801 318.096 95.3801ZM317.513 60.103C320.234 60.103 322.598 59.5199 324.607 58.3537C326.68 57.1227 328.3 55.4382 329.466 53.3002C330.632 51.1622 331.215 48.7003 331.215 45.9144C331.215 43.1933 330.6 40.7637 329.369 38.6257C328.203 36.4229 326.583 34.706 324.51 33.4751C322.501 32.2441 320.169 31.6286 317.513 31.6286C314.856 31.6286 312.459 32.2441 310.321 33.4751C308.183 34.706 306.499 36.4229 305.268 38.6257C304.101 40.7637 303.518 43.1933 303.518 45.9144C303.518 48.6355 304.101 51.065 305.268 53.203C306.499 55.341 308.151 57.0255 310.224 58.2565C312.362 59.4875 314.792 60.103 317.513 60.103ZM388.852 75.1662C383.604 75.1662 378.874 73.9676 374.663 71.5704C370.517 69.1085 367.245 65.8043 364.848 61.6579C362.451 57.4467 361.252 52.7171 361.252 47.4693C361.252 42.2215 362.451 37.5243 364.848 33.3779C367.245 29.2315 370.517 25.9597 374.663 23.5625C378.874 21.1653 383.604 19.9668 388.852 19.9668C392.61 19.9668 396.108 20.647 399.348 22.0076C402.587 23.3034 405.373 25.1174 407.705 27.4498C410.102 29.7174 411.819 32.4385 412.856 35.6131L401.68 40.4722C400.708 37.8159 399.056 35.6779 396.724 34.0582C394.456 32.4385 391.832 31.6286 388.852 31.6286C386.066 31.6286 383.572 32.3089 381.369 33.6694C379.231 35.03 377.546 36.9088 376.315 39.306C375.084 41.7032 374.469 44.4566 374.469 47.5665C374.469 50.6763 375.084 53.4298 376.315 55.827C377.546 58.2241 379.231 60.103 381.369 61.4635C383.572 62.8241 386.066 63.5043 388.852 63.5043C391.897 63.5043 394.553 62.6945 396.821 61.0748C399.088 59.4551 400.708 57.2847 401.68 54.5636L412.856 59.6171C411.819 62.5973 410.135 65.286 407.802 67.6832C405.47 70.0155 402.684 71.862 399.445 73.2225C396.205 74.5183 392.674 75.1662 388.852 75.1662ZM443.507 75.1662C438.324 75.1662 433.594 73.9676 429.318 71.5704C425.107 69.1733 421.738 65.9015 419.211 61.7551C416.749 57.6086 415.518 52.8791 415.518 47.5665C415.518 42.2539 416.749 37.5243 419.211 33.3779C421.738 29.2315 425.107 25.9597 429.318 23.5625C433.53 21.1653 438.259 19.9668 443.507 19.9668C448.69 19.9668 453.387 21.1653 457.598 23.5625C461.809 25.9597 465.146 29.2315 467.608 33.3779C470.135 37.4595 471.398 42.1891 471.398 47.5665C471.398 52.8791 470.135 57.6086 467.608 61.7551C465.081 65.9015 461.712 69.1733 457.501 71.5704C453.29 73.9676 448.625 75.1662 443.507 75.1662ZM443.507 63.5043C446.358 63.5043 448.852 62.8241 450.99 61.4635C453.193 60.103 454.91 58.2241 456.141 55.827C457.436 53.365 458.084 50.6115 458.084 47.5665C458.084 44.4566 457.436 41.7356 456.141 39.4032C454.91 37.006 453.193 35.1272 450.99 33.7666C448.852 32.3413 446.358 31.6286 443.507 31.6286C440.591 31.6286 438.032 32.3413 435.829 33.7666C433.627 35.1272 431.877 37.006 430.582 39.4032C429.351 41.7356 428.735 44.4566 428.735 47.5665C428.735 50.6115 429.351 53.365 430.582 55.827C431.877 58.2241 433.627 60.103 435.829 61.4635C438.032 62.8241 440.591 63.5043 443.507 63.5043ZM476.193 74V21.133H488.147V31.5314L487.175 29.685C488.406 26.5104 490.414 24.1132 493.2 22.4935C496.051 20.809 499.355 19.9668 503.113 19.9668C507 19.9668 510.434 20.809 513.414 22.4935C516.459 24.178 518.824 26.5428 520.509 29.5878C522.193 32.568 523.035 36.0342 523.035 39.9863V74H510.304V42.9989C510.304 40.6665 509.851 38.6581 508.944 36.9736C508.037 35.2891 506.773 33.9934 505.154 33.0863C503.599 32.1145 501.752 31.6286 499.614 31.6286C497.541 31.6286 495.695 32.1145 494.075 33.0863C492.455 33.9934 491.192 35.2891 490.285 36.9736C489.378 38.6581 488.924 40.6665 488.924 42.9989V74H476.193ZM528.941 74V21.133H540.895V31.5314L539.923 29.685C541.154 26.5104 543.162 24.1132 545.948 22.4935C548.799 20.809 552.103 19.9668 555.861 19.9668C559.748 19.9668 563.182 20.809 566.162 22.4935C569.207 24.178 571.572 26.5428 573.256 29.5878C574.941 32.568 575.783 36.0342 575.783 39.9863V74H563.052V42.9989C563.052 40.6665 562.599 38.6581 561.692 36.9736C560.785 35.2891 559.521 33.9934 557.902 33.0863C556.347 32.1145 554.5 31.6286 552.362 31.6286C550.289 31.6286 548.442 32.1145 546.823 33.0863C545.203 33.9934 543.94 35.2891 543.033 36.9736C542.126 38.6581 541.672 40.6665 541.672 42.9989V74H528.941ZM606.762 75.1662C601.32 75.1662 596.558 73.9352 592.476 71.4733C588.395 69.0113 585.22 65.6747 582.952 61.4635C580.685 57.2523 579.551 52.5876 579.551 47.4693C579.551 42.1567 580.685 37.4595 582.952 33.3779C585.285 29.2315 588.427 25.9597 592.379 23.5625C596.396 21.1653 600.866 19.9668 605.79 19.9668C609.937 19.9668 613.565 20.647 616.675 22.0076C619.849 23.3681 622.538 25.247 624.741 27.6442C626.944 30.0413 628.628 32.7948 629.794 35.9046C630.96 38.9497 631.543 42.2539 631.543 45.8172C631.543 46.7242 631.479 47.6637 631.349 48.6355C631.284 49.6073 631.122 50.4495 630.863 51.1622H590.047V41.444H623.672L617.646 46.0116C618.23 43.0313 618.068 40.375 617.161 38.0426C616.318 35.7103 614.893 33.8638 612.885 32.5033C610.941 31.1427 608.576 30.4624 605.79 30.4624C603.134 30.4624 600.769 31.1427 598.696 32.5033C596.623 33.799 595.035 35.7427 593.934 38.3342C592.897 40.8609 592.509 43.9383 592.768 47.5665C592.509 50.8059 592.93 53.6889 594.031 56.2157C595.197 58.6776 596.882 60.5889 599.085 61.9494C601.352 63.31 603.944 63.9902 606.859 63.9902C609.775 63.9902 612.237 63.3748 614.245 62.1438C616.318 60.9128 617.938 59.2607 619.104 57.1875L629.405 62.241C628.369 64.7677 626.749 67.0029 624.546 68.9465C622.344 70.8902 619.72 72.4127 616.675 73.5141C613.694 74.6155 610.39 75.1662 606.762 75.1662ZM661.797 75.1662C656.549 75.1662 651.819 73.9676 647.608 71.5704C643.462 69.1085 640.19 65.8043 637.793 61.6579C635.396 57.4467 634.197 52.7171 634.197 47.4693C634.197 42.2215 635.396 37.5243 637.793 33.3779C640.19 29.2315 643.462 25.9597 647.608 23.5625C651.819 21.1653 656.549 19.9668 661.797 19.9668C665.554 19.9668 669.053 20.647 672.292 22.0076C675.532 23.3034 678.318 25.1174 680.65 27.4498C683.047 29.7174 684.764 32.4385 685.801 35.6131L674.625 40.4722C673.653 37.8159 672.001 35.6779 669.669 34.0582C667.401 32.4385 664.777 31.6286 661.797 31.6286C659.011 31.6286 656.517 32.3089 654.314 33.6694C652.176 35.03 650.491 36.9088 649.26 39.306C648.029 41.7032 647.414 44.4566 647.414 47.5665C647.414 50.6763 648.029 53.4298 649.26 55.827C650.491 58.2241 652.176 60.103 654.314 61.4635C656.517 62.8241 659.011 63.5043 661.797 63.5043C664.842 63.5043 667.498 62.6945 669.766 61.0748C672.033 59.4551 673.653 57.2847 674.625 54.5636L685.801 59.6171C684.764 62.5973 683.08 65.286 680.747 67.6832C678.415 70.0155 675.629 71.862 672.39 73.2225C669.15 74.5183 665.619 75.1662 661.797 75.1662ZM714.703 74.5831C708.742 74.5831 704.11 72.9634 700.806 69.724C697.566 66.4198 695.946 61.7875 695.946 55.827V32.5033H686.811V21.133H687.783C690.375 21.133 692.383 20.4527 693.808 19.0921C695.234 17.7316 695.946 15.7555 695.946 13.164V9.08237H708.677V21.133H720.825V32.5033H708.677V55.1467C708.677 56.896 708.969 58.3861 709.552 59.6171C710.2 60.848 711.172 61.7875 712.467 62.4353C713.828 63.0832 715.545 63.4072 717.618 63.4072C718.072 63.4072 718.59 63.3748 719.173 63.31C719.821 63.2452 720.436 63.1804 721.019 63.1156V74C720.112 74.1296 719.076 74.2592 717.91 74.3887C716.743 74.5183 715.674 74.5831 714.703 74.5831ZM725.887 74V21.133H738.618V74H725.887ZM725.887 15.2048V1.59935H738.618V15.2048H725.887ZM771.363 75.1662C766.18 75.1662 761.451 73.9676 757.175 71.5704C752.964 69.1733 749.595 65.9015 747.068 61.7551C744.606 57.6086 743.375 52.8791 743.375 47.5665C743.375 42.2539 744.606 37.5243 747.068 33.3779C749.595 29.2315 752.964 25.9597 757.175 23.5625C761.386 21.1653 766.116 19.9668 771.363 19.9668C776.547 19.9668 781.244 21.1653 785.455 23.5625C789.666 25.9597 793.003 29.2315 795.465 33.3779C797.991 37.4595 799.255 42.1891 799.255 47.5665C799.255 52.8791 797.991 57.6086 795.465 61.7551C792.938 65.9015 789.569 69.1733 785.358 71.5704C781.146 73.9676 776.482 75.1662 771.363 75.1662ZM771.363 63.5043C774.214 63.5043 776.709 62.8241 778.847 61.4635C781.049 60.103 782.766 58.2241 783.997 55.827C785.293 53.365 785.941 50.6115 785.941 47.5665C785.941 44.4566 785.293 41.7356 783.997 39.4032C782.766 37.006 781.049 35.1272 778.847 33.7666C776.709 32.3413 774.214 31.6286 771.363 31.6286C768.448 31.6286 765.889 32.3413 763.686 33.7666C761.483 35.1272 759.734 37.006 758.438 39.4032C757.207 41.7356 756.592 44.4566 756.592 47.5665C756.592 50.6115 757.207 53.365 758.438 55.827C759.734 58.2241 761.483 60.103 763.686 61.4635C765.889 62.8241 768.448 63.5043 771.363 63.5043ZM804.05 74V21.133H816.003V31.5314L815.032 29.685C816.263 26.5104 818.271 24.1132 821.057 22.4935C823.908 20.809 827.212 19.9668 830.969 19.9668C834.857 19.9668 838.291 20.809 841.271 22.4935C844.316 24.178 846.681 26.5428 848.365 29.5878C850.05 32.568 850.892 36.0342 850.892 39.9863V74H838.161V42.9989C838.161 40.6665 837.707 38.6581 836.8 36.9736C835.893 35.2891 834.63 33.9934 833.01 33.0863C831.455 32.1145 829.609 31.6286 827.471 31.6286C825.398 31.6286 823.551 32.1145 821.932 33.0863C820.312 33.9934 819.048 35.2891 818.141 36.9736C817.234 38.6581 816.781 40.6665 816.781 42.9989V74H804.05Z" fill="white"/>
<path d="M230.009 158.166C224.372 158.166 219.448 156.838 215.237 154.182C211.09 151.461 208.24 147.8 206.685 143.2L216.209 138.633C217.569 141.613 219.448 143.945 221.845 145.63C224.307 147.314 227.028 148.156 230.009 148.156C232.341 148.156 234.187 147.638 235.548 146.602C236.908 145.565 237.589 144.204 237.589 142.52C237.589 141.483 237.297 140.641 236.714 139.993C236.196 139.28 235.451 138.697 234.479 138.244C233.572 137.726 232.568 137.304 231.466 136.98L222.817 134.551C218.347 133.255 214.945 131.279 212.613 128.623C210.345 125.967 209.212 122.824 209.212 119.196C209.212 115.957 210.021 113.138 211.641 110.741C213.326 108.279 215.626 106.368 218.541 105.008C221.521 103.647 224.923 102.967 228.745 102.967C233.734 102.967 238.139 104.165 241.962 106.563C245.784 108.96 248.505 112.329 250.125 116.669L240.407 121.237C239.5 118.84 237.977 116.929 235.839 115.503C233.701 114.078 231.304 113.365 228.648 113.365C226.51 113.365 224.825 113.851 223.594 114.823C222.364 115.795 221.748 117.058 221.748 118.613C221.748 119.585 222.007 120.427 222.525 121.14C223.044 121.852 223.756 122.436 224.663 122.889C225.635 123.343 226.737 123.764 227.968 124.152L236.423 126.679C240.763 127.975 244.1 129.919 246.432 132.51C248.829 135.102 250.028 138.276 250.028 142.034C250.028 145.209 249.186 148.027 247.501 150.489C245.817 152.886 243.484 154.765 240.504 156.125C237.524 157.486 234.025 158.166 230.009 158.166ZM280.025 158.166C274.583 158.166 269.821 156.935 265.74 154.473C261.658 152.011 258.483 148.675 256.216 144.464C253.948 140.252 252.814 135.588 252.814 130.469C252.814 125.157 253.948 120.46 256.216 116.378C258.548 112.231 261.69 108.96 265.642 106.563C269.659 104.165 274.13 102.967 279.054 102.967C283.2 102.967 286.828 103.647 289.938 105.008C293.113 106.368 295.801 108.247 298.004 110.644C300.207 113.041 301.891 115.795 303.058 118.905C304.224 121.95 304.807 125.254 304.807 128.817C304.807 129.724 304.742 130.664 304.612 131.635C304.548 132.607 304.386 133.45 304.127 134.162H263.31V124.444H296.935L290.91 129.012C291.493 126.031 291.331 123.375 290.424 121.043C289.582 118.71 288.156 116.864 286.148 115.503C284.204 114.143 281.839 113.462 279.054 113.462C276.397 113.462 274.032 114.143 271.959 115.503C269.886 116.799 268.299 118.743 267.197 121.334C266.161 123.861 265.772 126.938 266.031 130.566C265.772 133.806 266.193 136.689 267.295 139.216C268.461 141.678 270.145 143.589 272.348 144.949C274.616 146.31 277.207 146.99 280.123 146.99C283.038 146.99 285.5 146.375 287.508 145.144C289.582 143.913 291.201 142.261 292.367 140.188L302.669 145.241C301.632 147.768 300.012 150.003 297.81 151.947C295.607 153.89 292.983 155.413 289.938 156.514C286.958 157.615 283.654 158.166 280.025 158.166ZM325.444 158.166C321.751 158.166 318.544 157.551 315.823 156.32C313.101 155.089 310.996 153.339 309.506 151.072C308.016 148.74 307.271 146.051 307.271 143.006C307.271 140.09 307.918 137.499 309.214 135.231C310.51 132.899 312.518 130.955 315.239 129.4C317.961 127.845 321.394 126.744 325.541 126.096L342.839 123.278V132.996L327.97 135.523C325.444 135.976 323.565 136.786 322.334 137.952C321.103 139.118 320.487 140.641 320.487 142.52C320.487 144.334 321.168 145.792 322.528 146.893C323.953 147.93 325.703 148.448 327.776 148.448C330.432 148.448 332.765 147.897 334.773 146.796C336.846 145.63 338.434 144.042 339.535 142.034C340.701 140.026 341.284 137.823 341.284 135.426V121.82C341.284 119.553 340.377 117.674 338.563 116.184C336.814 114.629 334.482 113.851 331.566 113.851C328.845 113.851 326.415 114.596 324.277 116.086C322.204 117.512 320.682 119.423 319.71 121.82L309.311 116.767C310.348 113.981 311.968 111.584 314.17 109.575C316.438 107.502 319.094 105.882 322.139 104.716C325.184 103.55 328.489 102.967 332.052 102.967C336.393 102.967 340.215 103.777 343.519 105.396C346.824 106.951 349.383 109.154 351.197 112.005C353.076 114.791 354.015 118.062 354.015 121.82V157H341.965V147.962L344.686 147.768C343.325 150.035 341.705 151.947 339.827 153.501C337.948 154.992 335.81 156.158 333.413 157C331.015 157.777 328.359 158.166 325.444 158.166ZM360.923 157V104.133H372.876V116.378L371.515 114.337C372.487 110.515 374.431 107.664 377.346 105.785C380.262 103.906 383.696 102.967 387.648 102.967C391.988 102.967 395.811 104.101 399.115 106.368C402.419 108.636 404.557 111.616 405.529 115.309L401.933 115.6C403.553 111.389 405.983 108.247 409.222 106.174C412.462 104.036 416.187 102.967 420.398 102.967C424.156 102.967 427.492 103.809 430.408 105.494C433.388 107.178 435.72 109.543 437.405 112.588C439.089 115.568 439.932 119.034 439.932 122.986V157H427.201V125.999C427.201 123.667 426.78 121.658 425.937 119.974C425.095 118.289 423.929 116.993 422.439 116.086C420.949 115.115 419.135 114.629 416.997 114.629C414.988 114.629 413.207 115.115 411.652 116.086C410.097 116.993 408.898 118.289 408.056 119.974C407.214 121.658 406.793 123.667 406.793 125.999V157H394.062V125.999C394.062 123.667 393.641 121.658 392.798 119.974C391.956 118.289 390.758 116.993 389.203 116.086C387.712 115.115 385.931 114.629 383.858 114.629C381.849 114.629 380.067 115.115 378.513 116.086C376.958 116.993 375.759 118.289 374.917 119.974C374.075 121.658 373.653 123.667 373.653 125.999V157H360.923ZM445.843 157V83.4332H458.574V157H445.843ZM490.542 158.166C485.1 158.166 480.338 156.935 476.256 154.473C472.175 152.011 469 148.675 466.733 144.464C464.465 140.252 463.331 135.588 463.331 130.469C463.331 125.157 464.465 120.46 466.733 116.378C469.065 112.231 472.207 108.96 476.159 106.563C480.176 104.165 484.647 102.967 489.57 102.967C493.717 102.967 497.345 103.647 500.455 105.008C503.629 106.368 506.318 108.247 508.521 110.644C510.724 113.041 512.408 115.795 513.574 118.905C514.741 121.95 515.324 125.254 515.324 128.817C515.324 129.724 515.259 130.664 515.129 131.635C515.064 132.607 514.903 133.45 514.643 134.162H473.827V124.444H507.452L501.427 129.012C502.01 126.031 501.848 123.375 500.941 121.043C500.098 118.71 498.673 116.864 496.665 115.503C494.721 114.143 492.356 113.462 489.57 113.462C486.914 113.462 484.549 114.143 482.476 115.503C480.403 116.799 478.816 118.743 477.714 121.334C476.678 123.861 476.289 126.938 476.548 130.566C476.289 133.806 476.71 136.689 477.811 139.216C478.978 141.678 480.662 143.589 482.865 144.949C485.132 146.31 487.724 146.99 490.639 146.99C493.555 146.99 496.017 146.375 498.025 145.144C500.098 143.913 501.718 142.261 502.884 140.188L513.186 145.241C512.149 147.768 510.529 150.003 508.327 151.947C506.124 153.89 503.5 155.413 500.455 156.514C497.475 157.615 494.17 158.166 490.542 158.166ZM540.232 158.166C534.595 158.166 529.671 156.838 525.46 154.182C521.314 151.461 518.463 147.8 516.908 143.2L526.432 138.633C527.793 141.613 529.671 143.945 532.069 145.63C534.531 147.314 537.252 148.156 540.232 148.156C542.564 148.156 544.411 147.638 545.771 146.602C547.132 145.565 547.812 144.204 547.812 142.52C547.812 141.483 547.521 140.641 546.937 139.993C546.419 139.28 545.674 138.697 544.702 138.244C543.795 137.726 542.791 137.304 541.69 136.98L533.04 134.551C528.57 133.255 525.169 131.279 522.836 128.623C520.569 125.967 519.435 122.824 519.435 119.196C519.435 115.957 520.245 113.138 521.865 110.741C523.549 108.279 525.849 106.368 528.764 105.008C531.745 103.647 535.146 102.967 538.969 102.967C543.957 102.967 548.363 104.165 552.185 106.563C556.008 108.96 558.729 112.329 560.349 116.669L550.63 121.237C549.723 118.84 548.201 116.929 546.063 115.503C543.925 114.078 541.528 113.365 538.871 113.365C536.733 113.365 535.049 113.851 533.818 114.823C532.587 115.795 531.971 117.058 531.971 118.613C531.971 119.585 532.231 120.427 532.749 121.14C533.267 121.852 533.98 122.436 534.887 122.889C535.859 123.343 536.96 123.764 538.191 124.152L546.646 126.679C550.987 127.975 554.323 129.919 556.656 132.51C559.053 135.102 560.251 138.276 560.251 142.034C560.251 145.209 559.409 148.027 557.725 150.489C556.04 152.886 553.708 154.765 550.728 156.125C547.747 157.486 544.249 158.166 540.232 158.166ZM585.292 158.166C579.656 158.166 574.732 156.838 570.521 154.182C566.374 151.461 563.524 147.8 561.969 143.2L571.493 138.633C572.853 141.613 574.732 143.945 577.129 145.63C579.591 147.314 582.312 148.156 585.292 148.156C587.625 148.156 589.471 147.638 590.832 146.602C592.192 145.565 592.873 144.204 592.873 142.52C592.873 141.483 592.581 140.641 591.998 139.993C591.48 139.28 590.735 138.697 589.763 138.244C588.856 137.726 587.852 137.304 586.75 136.98L578.101 134.551C573.631 133.255 570.229 131.279 567.897 128.623C565.629 125.967 564.496 122.824 564.496 119.196C564.496 115.957 565.305 113.138 566.925 110.741C568.61 108.279 570.91 106.368 573.825 105.008C576.805 103.647 580.207 102.967 584.029 102.967C589.018 102.967 593.423 104.165 597.246 106.563C601.068 108.96 603.789 112.329 605.409 116.669L595.691 121.237C594.784 118.84 593.261 116.929 591.123 115.503C588.985 114.078 586.588 113.365 583.932 113.365C581.794 113.365 580.109 113.851 578.878 114.823C577.647 115.795 577.032 117.058 577.032 118.613C577.032 119.585 577.291 120.427 577.809 121.14C578.328 121.852 579.04 122.436 579.947 122.889C580.919 123.343 582.021 123.764 583.252 124.152L591.706 126.679C596.047 127.975 599.384 129.919 601.716 132.51C604.113 135.102 605.312 138.276 605.312 142.034C605.312 145.209 604.47 148.027 602.785 150.489C601.101 152.886 598.768 154.765 595.788 156.125C592.808 157.486 589.309 158.166 585.292 158.166ZM616.262 157V143.395H629.09V157H616.262Z" fill="url(#paint0_linear_57_26)"/>
<defs>
<linearGradient id="paint0_linear_57_26" x1="-65" y1="76" x2="910" y2="76" gradientUnits="userSpaceOnUse">
<stop stop-color="#169BD6"/>
<stop offset="0.38" stop-color="#169BD6"/>
<stop offset="1" stop-color="#0542D0"/>
</linearGradient>
</defs>
</svg>
