<svg width="21" height="20" viewBox="0 0 21 20" fill="none" xmlns="http://www.w3.org/2000/svg">
<g clip-path="url(#clip0_65_224)">
<path d="M10.4661 1.80047C13.1375 1.80047 13.4538 1.81219 14.5044 1.85906C15.4808 1.90202 16.0081 2.06605 16.3596 2.20275C16.8244 2.38241 17.1602 2.60112 17.5078 2.94872C17.8593 3.30022 18.0741 3.63219 18.2538 4.09696C18.3905 4.44846 18.5545 4.97962 18.5975 5.95211C18.6444 7.00662 18.6561 7.32297 18.6561 9.99048C18.6561 12.6619 18.6444 12.9783 18.5975 14.0289C18.5545 15.0053 18.3905 15.5325 18.2538 15.884C18.0741 16.3488 17.8554 16.6847 17.5078 17.0323C17.1563 17.3838 16.8244 17.5986 16.3596 17.7782C16.0081 17.9149 15.4769 18.0789 14.5044 18.1219C13.4499 18.1688 13.1336 18.1805 10.4661 18.1805C7.79465 18.1805 7.4783 18.1688 6.42769 18.1219C5.4513 18.0789 4.92404 17.9149 4.57254 17.7782C4.10778 17.5986 3.7719 17.3798 3.4243 17.0323C3.0728 16.6807 2.85799 16.3488 2.67833 15.884C2.54164 15.5325 2.3776 15.0013 2.33464 14.0289C2.28778 12.9743 2.27606 12.658 2.27606 9.99048C2.27606 7.31906 2.28778 7.00271 2.33464 5.95211C2.3776 4.97571 2.54164 4.44846 2.67833 4.09696C2.85799 3.63219 3.0767 3.29631 3.4243 2.94872C3.7758 2.59721 4.10778 2.38241 4.57254 2.20275C4.92404 2.06605 5.4552 1.90202 6.42769 1.85906C7.4783 1.81219 7.79465 1.80047 10.4661 1.80047ZM10.4661 0C7.75169 0 7.4119 0.0117167 6.34568 0.0585838C5.28336 0.105451 4.55301 0.277296 3.92031 0.523348C3.26027 0.781117 2.70177 1.1209 2.14717 1.6794C1.58868 2.23399 1.24889 2.79249 0.991122 3.44863C0.74507 4.08524 0.573224 4.81168 0.526357 5.874C0.47949 6.94413 0.467773 7.28391 0.467773 9.99829C0.467773 12.7127 0.47949 13.0525 0.526357 14.1187C0.573224 15.181 0.74507 15.9113 0.991122 16.5441C1.24889 17.2041 1.58868 17.7626 2.14717 18.3172C2.70177 18.8718 3.26027 19.2155 3.9164 19.4693C4.55301 19.7154 5.27945 19.8872 6.34177 19.9341C7.408 19.981 7.74778 19.9927 10.4622 19.9927C13.1765 19.9927 13.5163 19.981 14.5826 19.9341C15.6449 19.8872 16.3752 19.7154 17.0079 19.4693C17.6641 19.2155 18.2226 18.8718 18.7771 18.3172C19.3317 17.7626 19.6754 17.2041 19.9293 16.548C20.1753 15.9113 20.3472 15.1849 20.3941 14.1226C20.4409 13.0564 20.4526 12.7166 20.4526 10.0022C20.4526 7.28782 20.4409 6.94803 20.3941 5.88181C20.3472 4.81949 20.1753 4.08915 19.9293 3.45644C19.6832 2.79249 19.3435 2.23399 18.785 1.6794C18.2304 1.12481 17.6719 0.781117 17.0157 0.527254C16.3791 0.281202 15.6527 0.109356 14.5904 0.0624893C13.5202 0.0117168 13.1804 0 10.4661 0Z" fill="white"/>
<path d="M10.4659 4.86243C7.63047 4.86243 5.33008 7.16282 5.33008 9.99827C5.33008 12.8337 7.63047 15.1341 10.4659 15.1341C13.3014 15.1341 15.6018 12.8337 15.6018 9.99827C15.6018 7.16282 13.3014 4.86243 10.4659 4.86243ZM10.4659 13.3297C8.62639 13.3297 7.13446 11.8378 7.13446 9.99827C7.13446 8.15874 8.62639 6.66681 10.4659 6.66681C12.3054 6.66681 13.7974 8.15874 13.7974 9.99827C13.7974 11.8378 12.3054 13.3297 10.4659 13.3297Z" fill="white"/>
<path d="M17.0045 4.65934C17.0045 5.32329 16.4655 5.85836 15.8055 5.85836C15.1415 5.85836 14.6064 5.31939 14.6064 4.65934C14.6064 3.99539 15.1454 3.46033 15.8055 3.46033C16.4655 3.46033 17.0045 3.9993 17.0045 4.65934Z" fill="white"/>
</g>
<defs>
<clipPath id="clip0_65_224">
<rect width="19.9966" height="19.9966" fill="white" transform="translate(0.467773)"/>
</clipPath>
</defs>
</svg>
