<svg width="407" height="23" viewBox="0 0 407 23" fill="none" xmlns="http://www.w3.org/2000/svg">
<path d="M1.60938 1.55859C7.7858 9.07772 20.5437 10.6818 29.7112 10.5739C38.6595 10.4686 46.9534 9.17333 56.0261 9.6805C68.434 10.3741 80.6302 12.2274 93.062 10.8176C112.426 8.62166 131.289 11.6527 150.728 12.9293C157.4 13.3675 167.61 15.1744 174.037 11.5485C176.051 10.4128 176.796 7.12356 178.504 6.2693C185.555 2.74414 201.233 14.7694 210.099 13.7414C219.957 12.5984 216.202 6.6566 226.505 10.8988C237.955 15.6137 241.041 5.05889 249.409 12.4419C251.628 14.4002 254.83 16.9528 257.774 14.8785C265.809 9.2179 262.934 7.8194 275.805 7.73124C295.318 7.59759 309.352 10.4638 326.404 18.6958C338.478 24.5243 341.256 17.5613 350.283 11.6298C356.418 7.59823 366.361 8.78087 373.268 9.19318C384.11 9.84049 394.814 8.86831 405.106 8.86831" stroke="white" stroke-width="3" stroke-linecap="round"/>
</svg>
