<svg width="21" height="21" viewBox="0 0 21 21" fill="none" xmlns="http://www.w3.org/2000/svg">
<g clip-path="url(#clip0_65_223)">
<path d="M19.4959 0.740601H2.4558C1.63954 0.740601 0.979492 1.38502 0.979492 2.18176V19.2921C0.979492 20.0889 1.63954 20.7372 2.4558 20.7372H19.4959C20.3121 20.7372 20.9761 20.0889 20.9761 19.296V2.18176C20.9761 1.38502 20.3121 0.740601 19.4959 0.740601ZM6.91207 17.7807H3.94383V8.23541H6.91207V17.7807ZM5.42795 6.93486C4.47499 6.93486 3.70559 6.16546 3.70559 5.2164C3.70559 4.26734 4.47499 3.49794 5.42795 3.49794C6.37701 3.49794 7.14641 4.26734 7.14641 5.2164C7.14641 6.16155 6.37701 6.93486 5.42795 6.93486ZM18.0196 17.7807H15.0552V13.1408C15.0552 12.0355 15.0357 10.61 13.5125 10.61C11.9698 10.61 11.7355 11.8168 11.7355 13.0627V17.7807H8.77504V8.23541H11.6183V9.53988H11.6574C12.0518 8.79001 13.0204 7.99718 14.4616 7.99718C17.465 7.99718 18.0196 9.9734 18.0196 12.5433V17.7807Z" fill="white"/>
</g>
<defs>
<clipPath id="clip0_65_223">
<rect width="19.9966" height="19.9966" fill="white" transform="translate(0.979492 0.740601)"/>
</clipPath>
</defs>
</svg>
