<svg width="159" height="34" viewBox="0 0 159 34" fill="none" xmlns="http://www.w3.org/2000/svg">
<path fill-rule="evenodd" clip-rule="evenodd" d="M22.8912 33.36C22.4038 33.3597 21.929 33.2057 21.5341 32.92L10.8135 22.2042V25.7059C10.6237 26.162 10.2966 26.5478 9.87768 26.8096C9.45874 27.0714 8.96872 27.1963 8.47558 27.167C7.98245 27.1377 7.51066 26.9557 7.12566 26.6461C6.74065 26.3365 6.46153 25.9148 6.327 25.4394C6.327 23.859 6.02955 17.0354 6.327 16.0189C6.42799 15.6675 6.61266 15.3457 6.86521 15.0813C7.11776 14.8168 7.43065 14.6175 7.77707 14.5005C8.39675 14.296 17.6921 14.4447 17.847 14.5005C18.3286 14.6606 18.7437 14.9756 19.0276 15.3964C19.3114 15.8172 19.4481 16.3201 19.4163 16.8267C19.3844 17.3333 19.1859 17.8151 18.8516 18.197C18.5173 18.579 18.066 18.8395 17.5681 18.938H13.943L19.7432 24.7391C21.5503 24.0912 23.0878 22.8558 24.1097 21.2305C25.1315 19.6052 25.5786 17.684 25.3794 15.7744C25.1802 13.8649 24.3462 12.0774 23.0109 10.6981C21.6756 9.31872 19.9162 8.42731 18.0143 8.1665H3.22237C2.37665 8.37921 1.61557 8.84402 1.04006 9.49929C0.464563 10.1546 0.101838 10.9693 0 11.8355L0 30.1062C0.223158 30.9828 0.714661 31.7676 1.40576 32.351C2.09687 32.9344 2.95301 33.2872 3.85445 33.36H22.8912Z" fill="white"/>
<path d="M45.6685 11.3965V16.7713C45.2657 16.6905 44.8897 16.6501 44.5407 16.6501C42.849 16.6501 41.5735 17.0946 40.7142 17.9836C39.8818 18.8727 39.4656 20.2736 39.4656 22.1864V32.7339H33.7461V11.5582H39.0225V14.3062C40.2309 12.3395 42.2179 11.3561 44.9837 11.3561L45.6685 11.3965Z" fill="white"/>
<path d="M65.5089 23.8029H50.2032C50.3912 25.2577 50.9282 26.3758 51.8143 27.1571C52.7005 27.9114 53.8685 28.2886 55.3186 28.2886C56.2315 28.2886 57.0505 28.1 57.7755 27.7228C58.5274 27.3187 59.0644 26.7395 59.3867 25.9851H65.1464C64.5288 28.1404 63.3071 29.8916 61.4811 31.2386C59.682 32.5588 57.5741 33.2188 55.1574 33.2188C52.0426 33.2188 49.4916 32.1816 47.5046 30.1071C45.5175 28.0327 44.524 25.3655 44.524 22.1056C44.524 18.9535 45.5175 16.3268 47.5046 14.2254C49.4916 12.124 52.0292 11.0733 55.1172 11.0733C58.2052 11.0733 60.7158 12.124 62.6492 14.2254C64.6094 16.2998 65.5895 18.9266 65.5895 22.1056L65.5089 23.8029ZM55.0769 15.6802C53.788 15.6802 52.7273 16.0439 51.8949 16.7713C51.0625 17.4718 50.5254 18.4416 50.2838 19.6809H59.87C59.6552 18.4686 59.1316 17.4987 58.2991 16.7713C57.4667 16.0439 56.3926 15.6802 55.0769 15.6802Z" fill="white"/>
<path d="M79.3621 11.3965V16.7713C78.9594 16.6905 78.5834 16.6501 78.2344 16.6501C76.5427 16.6501 75.2672 17.0946 74.4079 17.9836C73.5755 18.8727 73.1593 20.2736 73.1593 22.1864V32.7339H67.4398V11.5582H72.7162V14.3062C73.9246 12.3395 75.9116 11.3561 78.6774 11.3561L79.3621 11.3965Z" fill="white"/>
<path d="M97.3096 30.0263C95.2688 32.1546 92.597 33.2188 89.2942 33.2188C85.9914 33.2188 83.3196 32.1546 81.2788 30.0263C79.2381 27.871 78.2177 25.2443 78.2177 22.146C78.2177 19.0478 79.2381 16.4345 81.2788 14.3062C83.3196 12.1509 85.9914 11.0733 89.2942 11.0733C92.597 11.0733 95.2688 12.1509 97.3096 14.3062C99.3503 16.4345 100.371 19.0478 100.371 22.146C100.371 25.2443 99.3503 27.871 97.3096 30.0263ZM85.4275 17.7412C84.434 18.8188 83.9372 20.2871 83.9372 22.146C83.9372 24.005 84.434 25.4732 85.4275 26.5509C86.4479 27.6285 87.7368 28.1674 89.2942 28.1674C90.8516 28.1674 92.1271 27.6285 93.1206 26.5509C94.141 25.4732 94.6512 24.005 94.6512 22.146C94.6512 20.2871 94.141 18.8188 93.1206 17.7412C92.1271 16.6635 90.8516 16.1247 89.2942 16.1247C87.7368 16.1247 86.4479 16.6635 85.4275 17.7412Z" fill="white"/>
<path d="M120.656 32.7339L116.387 19.6405H116.306L111.996 32.7339H106.639L99.2684 11.5582H105.189L109.419 25.5002L113.769 11.5582H118.924L123.315 25.581L127.584 11.5582H133.384L126.013 32.7339H120.656Z" fill="white"/>
<path d="M144.153 27.642V32.6126C143.509 32.7743 142.609 32.8551 141.455 32.8551C137.132 32.8551 134.97 30.6998 134.97 26.3892V16.0843H132.11V11.5582H134.97V6.30469H140.69V11.5582H144.194V16.0843H140.69V25.7831C140.69 27.1571 141.401 27.8441 142.824 27.8441L144.153 27.642Z" fill="white"/>
<path d="M151.081 32.0065C150.356 32.7069 149.429 33.0572 148.301 33.0572C147.174 33.0572 146.247 32.7069 145.522 32.0065C144.797 31.279 144.435 30.3496 144.435 29.2181C144.435 28.1135 144.797 27.1975 145.522 26.4701C146.247 25.7157 147.174 25.3385 148.301 25.3385C149.402 25.3385 150.315 25.7157 151.04 26.4701C151.792 27.1975 152.168 28.1135 152.168 29.2181C152.168 30.3496 151.806 31.279 151.081 32.0065Z" fill="white"/>
<path d="M153.08 0.714844V1.62024H151.368V6.3047H150.361V1.62024H148.648V0.714844H153.08Z" fill="white"/>
<path d="M154.344 0.714844L156.206 3.02952L158.077 0.714844H159V6.3047H158.011V2.21859L156.223 4.4073H156.189L154.41 2.21859V6.3047H153.421V0.714844H154.344Z" fill="white"/>
</svg>
