<svg width="20" height="22" viewBox="0 0 20 22" fill="none" xmlns="http://www.w3.org/2000/svg">
<g clip-path="url(#clip0_65_221)">
<path d="M14.2282 0.962402H10.8582V15.0877C10.8582 16.7708 9.56207 18.1533 7.94907 18.1533C6.33607 18.1533 5.03992 16.7708 5.03992 15.0877C5.03992 13.4348 6.30727 12.0823 7.86268 12.0222V8.47589C4.43505 8.53597 1.66992 11.4512 1.66992 15.0877C1.66992 18.7543 4.49265 21.6996 7.97789 21.6996C11.4631 21.6996 14.2858 18.7243 14.2858 15.0877V7.84473C15.5532 8.80648 17.1085 9.3775 18.7503 9.40757V5.86119C16.2157 5.77103 14.2282 3.60714 14.2282 0.962402Z" fill="white"/>
</g>
<defs>
<clipPath id="clip0_65_221">
<rect width="19.9966" height="20.7372" fill="white" transform="translate(0.00390625 0.962402)"/>
</clipPath>
</defs>
</svg>
