<svg width="21" height="18" viewBox="0 0 21 18" fill="none" xmlns="http://www.w3.org/2000/svg">
<path d="M6.321 17.2559C13.865 17.2559 17.9924 10.9867 17.9924 5.55165C17.9924 5.37541 17.9885 5.19524 17.9807 5.019C18.7836 4.43672 19.4765 3.71548 20.0269 2.88917C19.2791 3.2228 18.4852 3.44069 17.6722 3.5354C18.5282 3.02086 19.1691 2.21253 19.4762 1.26027C18.6709 1.73886 17.7902 2.07646 16.8719 2.2586C16.2532 1.59932 15.4351 1.1628 14.5442 1.01653C13.6533 0.870258 12.7391 1.02238 11.943 1.44938C11.147 1.87637 10.5133 2.55446 10.1401 3.3788C9.76686 4.20315 9.67482 5.12783 9.8782 6.00989C8.24761 5.92783 6.65242 5.50306 5.19604 4.76311C3.73966 4.02315 2.4546 2.98454 1.42418 1.71459C0.900458 2.62008 0.740199 3.69157 0.975971 4.7113C1.21174 5.73102 1.82585 6.62246 2.69349 7.20444C2.04212 7.1837 1.40502 7.00784 0.834824 6.69137V6.74229C0.83424 7.69253 1.16183 8.61365 1.7619 9.34908C2.36198 10.0845 3.1975 10.5888 4.12645 10.7764C3.52306 10.9419 2.88977 10.966 2.27559 10.8468C2.53772 11.6641 3.04774 12.3788 3.73445 12.8914C4.42116 13.4039 5.25032 13.6887 6.10619 13.7059C4.65317 14.8505 2.85827 15.4713 1.01057 15.4684C0.682901 15.4679 0.35555 15.4478 0.0302734 15.4081C1.90733 16.6157 4.09086 17.2571 6.321 17.2559Z" fill="white"/>
</svg>
