<svg width="21" height="21" viewBox="0 0 21 21" fill="none" xmlns="http://www.w3.org/2000/svg">
<g clip-path="url(#clip0_65_222)">
<path d="M20.2886 6.9614C20.2886 6.9614 20.0933 5.58273 19.4919 4.97736C18.7303 4.18062 17.8789 4.17672 17.4883 4.12985C14.6919 3.92676 10.4934 3.92676 10.4934 3.92676H10.4856C10.4856 3.92676 6.2871 3.92676 3.4907 4.12985C3.10014 4.17672 2.24872 4.18062 1.48713 4.97736C0.885675 5.58273 0.694301 6.9614 0.694301 6.9614C0.694301 6.9614 0.491211 8.58221 0.491211 10.1991V11.7145C0.491211 13.3314 0.690396 14.9522 0.690396 14.9522C0.690396 14.9522 0.885675 16.3309 1.48323 16.9363C2.24482 17.733 3.24465 17.7057 3.68988 17.7916C5.29117 17.9439 10.4895 17.9908 10.4895 17.9908C10.4895 17.9908 14.6919 17.983 17.4883 17.7838C17.8789 17.7369 18.7303 17.733 19.4919 16.9363C20.0933 16.3309 20.2886 14.9522 20.2886 14.9522C20.2886 14.9522 20.4878 13.3353 20.4878 11.7145V10.1991C20.4878 8.58221 20.2886 6.9614 20.2886 6.9614ZM8.42345 13.554V7.93389L13.8249 10.7537L8.42345 13.554Z" fill="white"/>
</g>
<defs>
<clipPath id="clip0_65_222">
<rect width="19.9966" height="19.9966" fill="white" transform="translate(0.491211 0.962402)"/>
</clipPath>
</defs>
</svg>
